# xmcd CD database file generated by OrangeCD 5.2
#
# Track frame offsets:
#	150
#	15700
#	27076
#	36981
#	54392
#	78821
#	94361
#	108672
#	124557
#	148588
#	152720
#	168721
#	171571
#	194018
#	203115
#	219079
#
# Disc length: 3132 seconds
#
# Revision: 0
# Processed by: cddbd v1.5.1PL0 Copyright (c) Steve Scherf et al.
# Submitted via: OrangeCD 5.2
#
DISCID=df0c3a10
DTITLE=Markus James - Timbuktoubab
DYEAR=2005
DGENRE=Blues
TTITLE0=Sixteen Camels - Yer Man Ya Li
TTITLE1=Mone - Jump Up and Fly
TTITLE2=Gabriel
TTITLE3=Mercy - Dau
TTITLE4=Koriome (instr.)
TTITLE5=Timebomb - Ebina
TTITLE6=Far As I Can Run - Majirica Samba
TTITLE7=Gobissa - Things We'll Never
TTITLE8=All The Kingdoms - Goi Boiru
TTITLE9=Lets Go (instr.)
TTITLE10=Break That Chain Each Day
TTITLE11=There Goes Bankano (intsr.)
TTITLE12=Takamba Blues
TTITLE13=Weather Change (instr.)
TTITLE14=Tele - Fire At The Gate
TTITLE15=Sun Is Rising
EXTD=
EXTT0=
EXTT1=
EXTT2=
EXTT3=
EXTT4=
EXTT5=
EXTT6=
EXTT7=
EXTT8=
EXTT9=
EXTT10=
EXTT11=
EXTT12=
EXTT13=
EXTT14=
EXTT15=
PLAYORDER=
